<svg xmlns="http://www.w3.org/2000/svg" aria-hidden="true" style="position:absolute;width:0;height:0;overflow:hidden">
<defs>
<symbol id="icon-benefits-1" viewBox="0 0 30 32"><path d="m29.86 22.1-8.44-8.5.93-4.62a2.16 2.16 0 1 0-1.24-1.29l-4.96.6L8.05.16A.53.53 0 0 0 7.69 0a.53.53 0 0 0-.37.16L5.8 1.66c-.21.2-.21.55 0 .75l.8.83A14.94 14.94 0 0 0 9.14 20.9c.04.04.09.08.14.1-.03.18-.05.36-.05.55v6.18h-6.4A2.67 2.67 0 0 0 .16 30.4v1.07c0 .3.23.53.53.53h24.53c.3 0 .53-.24.53-.53V30.4c0-1.47-1.2-2.66-2.66-2.66h-6.4v-2.75a14.85 14.85 0 0 0 10.09-1.46l.81.82a.53.53 0 0 0 .75 0l1.52-1.5c.2-.2.2-.54 0-.75zm-7.5-15.87a1.07 1.07 0 1 1 .76 1.82 1.07 1.07 0 0 1-.75-1.82zm-1.25 3.5-.6 2.95-1.17-1.18 1.77-1.76zm-.6-.9-1.93 1.92-1.48-1.5 3.4-.41zm2.58 19.97c.88 0 1.6.72 1.6 1.6v.53H1.22v-.53c0-.88.72-1.6 1.6-1.6H23.1zm-7.47-2.13v1.06H10.3v-1.06h5.33zM10.3 25.6v-4.05c0-1.3 1.2-2.35 2.67-2.35s2.66 1.05 2.66 2.35v4.05H10.3zm6.4-1.7v-2.35c0-1.89-1.68-3.42-3.73-3.42a3.8 3.8 0 0 0-3.28 1.79A13.87 13.87 0 0 1 7.4 4.03L26 22.74a13.82 13.82 0 0 1-9.31 1.16zm11.29-.68L6.92 2.04l.76-.75 7.93 7.98h.01l13.12 13.2-.76.75z"/><path d="M12.96 20.27a1.6 1.6 0 1 0 0 3.2 1.6 1.6 0 1 0 0-3.2zm.38 1.98c-.1.1-.24.15-.38.15a.53.53 0 0 1 0-1.07.53.53 0 0 1 .37.92z"/></symbol>
<symbol id="icon-benefits-2" viewBox="0 0 31 32"><path d="M29.32 13.73A13.74 13.74 0 1 0 11.4 26.82c.06.02.12.02.17.02a.6.6 0 0 0 .3-.08.57.57 0 0 0 .26-.32l3.47-11a1.72 1.72 0 1 0-.75-3.25L10.27 7.6a.57.57 0 0 0-.81.81L14.04 13c-.35.71-.15 1.58.48 2.07l-3.3 10.47a12.6 12.6 0 1 1 9.48-.31l-.36-1.68a.57.57 0 0 0-.94-.31l-3.44 3.07a.57.57 0 0 0 .2.98l4.4 1.4a.57.57 0 0 0 .74-.66l-.36-1.65a13.7 13.7 0 0 0 8.38-12.65zm-13.74-.57a.57.57 0 1 1 0 1.14.57.57 0 0 1 0-1.14zm1.89 13.34 1.96-1.75.54 2.55-2.5-.8z"/><path d="M15.01 2.86V4a.57.57 0 1 0 1.14 0V2.86a.57.57 0 1 0-1.14 0zM4.7 13.16a.57.57 0 1 0 0 1.14h1.15a.57.57 0 1 0 0-1.14H4.71zM26.46 14.3a.57.57 0 1 0 0-1.14H25.3a.57.57 0 1 0 0 1.14h1.15z"/></symbol>
<symbol id="icon-benefits-3" viewBox="0 0 32 32"><path d="M14.93 14.96h1.06v4.8h-1.06v-4.8zM19.19 17.1h1.07v2.66h-1.07V17.1zM10.66 18.7h1.07v1.06h-1.07V18.7zM7.46 18.16h1.07v1.6H7.46v-1.6z"/><path d="M1.6 28.3h25.59c.88 0 1.6-.73 1.6-1.6v-2.14c0-.88-.72-1.6-1.6-1.6h-.54V9.66l3.03-2.86a1.6 1.6 0 1 0-.75-.76L26.65 8.2V6.97c0-.88-.71-1.6-1.6-1.6H3.73c-.88 0-1.6.72-1.6 1.6v16H1.6c-.88 0-1.6.7-1.6 1.6v2.12c0 .89.72 1.6 1.6 1.6zM30.38 4.83a.53.53 0 1 1 0 1.06.53.53 0 0 1 0-1.06zM3.2 6.97c0-.3.24-.53.53-.53h21.32c.3 0 .54.23.54.53V9.2l-1.07 1.01V8.03c0-.29-.24-.53-.53-.53H4.79c-.29 0-.53.24-.53.53v13.33c0 .3.24.53.54.53h19.19c.3 0 .53-.23.53-.53V11.7l1.07-1.01v12.28H3.19v-16zM8 13.9a1.6 1.6 0 1 0 1.1 2.75l1.86.93c.21.1.47.06.63-.12l3.94-4.44 3.87 2.9c.21.16.5.14.69-.03l3.36-3.2v8.14H5.33V8.57h18.12v2.66l-3.77 3.57-3.9-2.93a.53.53 0 0 0-.72.08l-4 4.49-1.49-.75c.02-.06.02-.13.02-.19 0-.88-.71-1.6-1.6-1.6zm.53 1.6a.53.53 0 1 1-1.07 0 .53.53 0 0 1 1.07 0zm3.2 8.53h5.33v.53c0 .3-.24.53-.53.53h-4.27a.53.53 0 0 1-.53-.53v-.53zm-10.66.53c0-.3.24-.53.53-.53h9.06v.53c0 .88.72 1.6 1.6 1.6h4.26c.89 0 1.6-.72 1.6-1.6v-.53h9.06c.3 0 .54.24.54.53v2.13c0 .3-.24.53-.53.53H1.59a.53.53 0 0 1-.52-.53v-2.13z"/>
</symbol>
<symbol id="icon-benefits-4" viewBox="0 0 29 32"><path d="M28.36 13.63a2.04 2.04 0 0 0-1.36-.81c-.56-.08-1.1.06-1.54.4l-1.44 1.1-2.17 1.63-1.56-.62A7.96 7.96 0 0 0 25 8.07a7.98 7.98 0 1 0-14.7 4.32l-3.17-.03h-.03a.58.58 0 0 0-.18.04l-.04.02h-.02l-3.71 1.83L.98 15.3a2.04 2.04 0 0 0 2.03 3.55l1.6-.85 2.6-1.34 1.56-.01-6.25 6.21L.98 24.4a1.9 1.9 0 0 0 1.35 3.26c.5 0 .99-.19 1.36-.56l1.51-1.5 2-1.5 1.03 1.04-2.02 2v.01l-1.54 1.53a1.9 1.9 0 0 0 1.35 3.26c.5 0 .99-.18 1.36-.56l4-3.97 1.15-1.15.03-.03 5.92-6.49 3.99.57h.08c.08 0 .15-.01.22-.04l.06-.03.06-.03 3.69-2.45.03-.03.05-.03 1.46-1.37c.76-.7.86-1.87.24-2.7zM2.45 17.77c-.2.1-.43.13-.65.06a.82.82 0 0 1-.24-1.45l1.5-.72.52 1.5-1.14.6zm4-2.1-1.77.92-.5-1.47 2.32-1.15-.04 1.7zm17.33-7.6c0 1.06-.25 2.05-.68 2.94l-4.8-2.18a2.14 2.14 0 0 0-.9-1.6l1.67-5.57a6.74 6.74 0 0 1 4.71 6.41zm-13.52 0a6.76 6.76 0 0 1 7.62-6.67l-1.65 5.46-.06-.01c-1.19 0-2.15.96-2.15 2.14a2.15 2.15 0 0 0 4 1.06l4.44 2.01a6.76 6.76 0 0 1-12.2-3.99zm6.83.92a.92.92 0 0 1-1.85 0c0-.5.42-.92.93-.92s.92.42.92.92zM2.83 26.23a.7.7 0 0 1-.98 0 .68.68 0 0 1 0-.96l1.1-1.1.98.97-1.1 1.1zm3.69 4.29a.7.7 0 0 1-.98 0 .68.68 0 0 1 0-.97l1.1-1.1.98.97-1.1 1.1zm4-3.98h-.01l-2.02 2.02-.98-.97 2.02-2.02a.6.6 0 0 0 .1-.16l.04-.04.02-.15.02-.08-.02-.12c0-.04 0-.08-.02-.11a.6.6 0 0 0-.1-.16l-.04-.04-1.84-1.84-.07-.05a.6.6 0 0 0-.1-.06.52.52 0 0 0-.1-.04.59.59 0 0 0-.13-.02h-.1a.6.6 0 0 0-.12.03.53.53 0 0 0-.11.05c-.03.01-.05.01-.07.03l-2.04 1.52-1.03-1.03 2.75-2.74 5 4.92-1.06 1.06zm7.82-8.05h-.06a.65.65 0 0 0-.23.03.65.65 0 0 0-.2.12l-.05.04-5.4 5.9-4.96-4.88 3.25-3.24a.61.61 0 0 0-.43-1.04l-2.55.01.03-1.84 3.57.03a7.97 7.97 0 0 0 7.18 2.27l.15.1 2.76 1.1.18.87.2 1.01-3.44-.49zm4.63.2-.35-1.79 1.66-1.24 1.08 1.45-2.39 1.58zm4.31-3.25-.96.9-1.07-1.42.96-.73c.17-.13.4-.2.62-.16.22.03.42.15.55.32.25.34.2.8-.1 1.1z"/></symbol>
<symbol id="icon-celphone" viewBox="0 0 20 32"><path d="M17 0H3a3 3 0 0 0-3 3v26a3 3 0 0 0 3 3h14a3 3 0 0 0 3-3V3a3 3 0 0 0-3-3zM3 2h14a1 1 0 0 1 1 1v21H2V3a1 1 0 0 1 1-1zm14 28H3a1 1 0 0 1-1-1v-3h16v3a1 1 0 0 1-1 1z"/><path d="M4.7 27.48c.4.36.4.95 0 1.32s-1.02.36-1.4 0c-.4-.37-.4-.96 0-1.32s1.02-.37 1.4 0z"/></symbol>
<symbol id="icon-client-1" viewBox="0 0 29 32"><path d="m4.17.06 4.88 4.62L0 4.67v22.4h23.65V18.5l4.87 4.61V.06H4.17zm19.27 17.9L9.62 4.87h13.82v13.09zm-4.3 5.83H3.75V8.73h1.1v14.04h14.3v1.02zM7.39 30.04l-.57 1.18-.57-1.18h-.48l.83 1.57v.9h.44v-.9l.82-1.57h-.47zm.72 2.48.2-.58h.95l.2.57h.45l-.93-2.47h-.39l-.93 2.48h.44zm.67-1.95.36 1.02h-.72l.36-1.02zm2.27.96a.65.65 0 0 0 .13.82c.14.14.34.2.58.2s.46-.07.64-.2l.13.17H13l-.36-.43c.14-.2.21-.45.21-.75h-.35c0 .16-.04.32-.1.45l-.48-.56.16-.12c.12-.1.2-.18.26-.26a.55.55 0 0 0-.1-.68.62.62 0 0 0-.44-.16c-.2 0-.35.06-.47.17a.6.6 0 0 0-.18.46c0 .08.02.16.06.25.03.08.1.18.2.3-.18.14-.3.25-.37.35zm1.12.55a.63.63 0 0 1-.4.14c-.12 0-.22-.04-.3-.1s-.1-.17-.1-.29c0-.13.07-.25.2-.35l.06-.04.54.64zm-.45-1.1c-.11-.14-.17-.26-.17-.35 0-.09.02-.15.07-.2s.11-.1.2-.1c.07 0 .13.03.18.08.04.04.07.1.07.16a.3.3 0 0 1-.1.24l-.06.05-.19.12zm4.03 1.35a.9.9 0 0 0 .29-.62h-.43c-.02.18-.07.3-.16.38s-.21.11-.38.11a.48.48 0 0 1-.42-.2c-.1-.15-.14-.35-.14-.62v-.22c0-.26.05-.46.15-.6a.5.5 0 0 1 .43-.2c.16 0 .28.04.37.12.08.07.13.2.15.38h.43c-.03-.27-.12-.48-.29-.63s-.39-.22-.66-.22a.94.94 0 0 0-.9.55c-.07.18-.11.39-.11.62v.23c0 .23.04.43.12.6s.2.3.35.4c.15.1.32.14.52.14a1 1 0 0 0 .68-.22zm2.52-.35c.09-.18.13-.4.13-.64v-.13c0-.25-.04-.46-.13-.64a.95.95 0 0 0-.9-.56c-.2 0-.38.05-.53.14a.96.96 0 0 0-.37.43c-.08.18-.12.4-.12.64v.14c0 .23.04.44.13.62.08.18.2.32.36.42a1 1 0 0 0 .54.15 1 1 0 0 0 .53-.15c.16-.1.28-.24.36-.42zm-.46-1.4c.1.15.16.36.16.63v.13c0 .28-.05.5-.16.64a.5.5 0 0 1-.43.22.52.52 0 0 1-.45-.23c-.1-.14-.15-.35-.15-.63v-.14c0-.27.05-.47.16-.62a.5.5 0 0 1 .43-.21.5.5 0 0 1 .44.21z"/></symbol>
<symbol id="icon-client-2" viewBox="0 0 26 32"><path d="M10.95 1.93h-.08l-.4-.01h-.3a14.28 14.28 0 0 0-.83.02c-2.33.13-4.62.71-6.73 1.72l-.27.13v14.17l.64-.22a21.94 21.94 0 0 1 6.98-1.22v1.86c-.23 0-.45 0-.68.02h-.05a20.75 20.75 0 0 0-8.74 2.46V2.7c1.56-.91 3.24-1.6 4.99-2.03 1.53-.4 3.1-.6 4.7-.6h.27a13.4 13.4 0 0 1 3.29.42V2.3c-.75-.18-1.51-.29-2.28-.34h-.04l-.47-.03zm3.23 1.88a20.15 20.15 0 0 0 6.19-.59 20.36 20.36 0 0 0 4.74-1.85v17.85c-1.55.9-3.23 1.59-4.98 2.02-1.53.4-3.11.6-4.7.6-1.2.02-2.4-.12-3.56-.41V3.46a15.27 15.27 0 0 0 2.3.35zm9.08.13-.65.22a21.9 21.9 0 0 1-8.37 1.2l-.5-.04V19.9l.44.04a17.21 17.21 0 0 0 5.5-.5c1.14-.28 2.24-.68 3.3-1.19l.28-.13V3.95zM1.75 27.07a.96.96 0 0 0-.72-.29c-.14 0-.28.03-.41.08a.94.94 0 0 0-.53.54c-.06.13-.08.26-.08.4v2.43c0 .17.03.34.1.5.05.12.14.23.24.32.1.08.2.14.33.17.12.04.24.05.37.05s.26-.02.39-.08a1.02 1.02 0 0 0 .61-.94v-.27h-.63v.21c0 .08-.01.15-.04.22a.4.4 0 0 1-.1.14.46.46 0 0 1-.27.1l-.15-.03a.32.32 0 0 1-.14-.11.57.57 0 0 1-.08-.32v-2.27c0-.12.02-.25.08-.36a.33.33 0 0 1 .3-.15c.06 0 .12.01.17.04s.09.05.12.1c.07.1.1.2.1.32v.21h.63v-.24a1.15 1.15 0 0 0-.29-.77zM5.52 27.04a1.13 1.13 0 0 0-1.1-.2 1.03 1.03 0 0 0-.58.54c-.06.15-.1.31-.1.47v2.33c0 .17.04.33.1.48.06.13.14.24.25.33a1.09 1.09 0 0 0 1.44 0 1 1 0 0 0 .32-.8v-2.34a1.04 1.04 0 0 0-.33-.81zm-.3 3.14a.42.42 0 0 1-.12.34.47.47 0 0 1-.6 0 .42.42 0 0 1-.12-.34v-2.33a.42.42 0 0 1 .12-.33.47.47 0 0 1 .6 0 .42.42 0 0 1 .13.33v2.33zM10.47 31.22v-4.4h-.6l-.8 2.33h-.02l-.8-2.34h-.6v4.41h.62v-2.68h.01l.62 1.9h.31l.63-1.9v2.68h.64zM14.05 27.12a.87.87 0 0 0-.35-.24c-.15-.04-.3-.07-.46-.06h-.94v4.4h.63V29.5h.33c.2.01.39-.03.56-.12a1.04 1.04 0 0 0 .49-.72 3.12 3.12 0 0 0-.03-1.13.94.94 0 0 0-.23-.4zm-.32 1.35c0 .08-.02.16-.06.23a.36.36 0 0 1-.16.15c-.1.04-.2.06-.3.06h-.28v-1.5h.32c.1 0 .2.01.28.05.07.04.12.1.15.17s.05.16.05.24v.6zM17.03 26.82h-.52l-.97 4.4h.63l.19-.94h.85l.19.94h.62l-1-4.4zm-.58 2.86.3-1.6h.02l.3 1.6h-.62zM21.09 29.47h-.01l-.95-2.65h-.6v4.4h.62v-2.65h.02l.96 2.65h.59v-4.4h-.63v2.65zM24.93 26.82l-.5 1.75h-.02l-.5-1.75h-.67l.86 2.54v1.86h.63v-1.86l.86-2.54h-.66z"/></symbol>
<symbol id="icon-client-3" viewBox="0 0 34 32"><path d="M5.64 31.38h.04l.03.03.16.16c-.13.13-.28.23-.46.3-.21.07-.44.11-.67.1-.21.01-.42-.02-.62-.1a1.27 1.27 0 0 1-.77-.73 1.47 1.47 0 0 1 0-1.12c.08-.17.19-.32.33-.44.14-.13.31-.22.5-.29a1.96 1.96 0 0 1 1.24 0c.16.05.31.14.44.25l-.14.17a.17.17 0 0 1-.03.03.1.1 0 0 1-.06.01c-.02 0-.04 0-.06-.02l-.07-.04-.1-.06a1.3 1.3 0 0 0-.58-.12c-.16 0-.32.02-.46.08-.14.04-.26.12-.36.2-.1.1-.19.22-.24.35-.06.14-.09.3-.08.45 0 .15.02.3.08.45a.94.94 0 0 0 .58.55c.13.05.28.07.43.07l.25-.01a1.01 1.01 0 0 0 .55-.24.13.13 0 0 1 .08-.03zM10.44 30.58c0 .2-.03.39-.11.56-.07.17-.17.31-.31.44s-.31.22-.5.29c-.4.13-.85.13-1.26 0a1.45 1.45 0 0 1-.49-.3 1.3 1.3 0 0 1-.31-.43 1.46 1.46 0 0 1 0-1.13c.07-.16.18-.31.31-.44.14-.12.3-.21.5-.27a2 2 0 0 1 1.26 0 1.29 1.29 0 0 1 .92 1.29zm-.43 0c0-.15-.03-.3-.08-.45a.93.93 0 0 0-.58-.55c-.3-.1-.62-.1-.91 0a.99.99 0 0 0-.36.21.9.9 0 0 0-.22.34c-.1.3-.1.61 0 .9a.93.93 0 0 0 .58.55c.3.1.62.1.91 0a.93.93 0 0 0 .57-.55c.06-.14.09-.3.09-.45zM13.71 31.06l.05.1.05-.1a.95.95 0 0 1 .05-.1l1.06-1.68c.02-.03.04-.05.06-.05l.09-.01h.31v2.73h-.37v-2.19l-1.07 1.7c-.01.03-.03.05-.06.06l-.09.03h-.06c-.03 0-.06 0-.09-.02l-.06-.07-1.1-1.7v2.18h-.36v-2.72H12.53l.05.06 1.08 1.68.06.1zM17.71 30.92v1.02h-.41v-2.72h.92c.18 0 .35.02.52.06.13.03.26.09.36.17.1.07.17.16.21.27.05.1.07.23.07.34a.77.77 0 0 1-.3.63c-.1.08-.23.14-.37.17-.16.05-.33.07-.5.07h-.5zm0-.3h.5c.11.01.22 0 .33-.03a.71.71 0 0 0 .23-.12.53.53 0 0 0 .2-.4c0-.09-.02-.16-.05-.23s-.09-.14-.15-.19a.89.89 0 0 0-.56-.14h-.5v1.12zM23.3 31.95h-.33c-.04 0-.07-.01-.1-.03a.17.17 0 0 1-.05-.06l-.28-.66h-1.42l-.3.66a.15.15 0 0 1-.14.09h-.33l1.25-2.73h.43l1.26 2.73zm-2.06-1.02h1.17l-.5-1.1a1.75 1.75 0 0 1-.09-.26l-.05.14a1.4 1.4 0 0 1-.04.12l-.5 1.1zM25.09 29.23l.06.05 1.82 2.06v-2.12h.37v2.73h-.2a.2.2 0 0 1-.1-.02.22.22 0 0 1-.06-.05l-1.81-2.05v2.12h-.38v-2.73h.22a.2.2 0 0 1 .08.01zM30.4 30.86v1.08H30v-1.08l-1.15-1.64h.37c.03 0 .06 0 .09.02l.05.06.72 1.06a1.88 1.88 0 0 1 .13.25l.06-.12a.91.91 0 0 1 .07-.13l.7-1.06a.3.3 0 0 1 .06-.06.14.14 0 0 1 .09-.03h.37l-1.15 1.65zM13.51 24.64l.55.05c2.8-1.09 5.17-2.87 6.81-5.12s2.49-4.88 2.43-7.55l-3.1-2.68c.64 2.84.34 5.77-.84 8.47s-3.2 5.07-5.85 6.83z"/><path d="m12.4 24.52.09.01c2.82-1.75 4.97-4.2 6.18-7.03s1.4-5.9.57-8.83l-4.4-3.82c1.78 3.14 2.5 6.66 2.06 10.14s-1.99 6.78-4.5 9.53zM27.33 15.17a13.74 13.74 0 0 1-5.18 7.54c-.76.58-1.59 1.09-2.46 1.53 2.13-.54 4.09-1.5 5.72-2.8s2.9-2.92 3.7-4.72l-1.78-1.55z"/><path d="m26.63 14.74-2.54-2.2c-.05 2.51-.88 4.97-2.39 7.12s-3.66 3.9-6.22 5.08h.02c.57 0 1.14-.03 1.7-.09 2.4-.84 4.5-2.2 6.15-3.92s2.77-3.79 3.28-5.99zM12.77 3.24 9.74.6c-2.7.91-5.04 2.5-6.68 4.59S.53 9.73.52 12.25c0 2.8 1.09 5.5 3.07 7.7s4.74 3.75 7.86 4.42c2.78-2.94 4.4-6.57 4.64-10.38s-.92-7.56-3.32-10.75zM33.63 14.34c-.01-3.31-1.53-6.48-4.22-8.82s-6.34-3.66-10.15-3.67c-1.76 0-3.5.28-5.15.83L32.67 18.8c.64-1.42.96-2.94.96-4.46z"/></symbol>
<symbol id="icon-client-4" viewBox="0 0 65 32"><path d="M10.02 10.05c-1.83 0-3.31 1.31-3.31 2.94 0 1.62 1.48 2.94 3.3 2.94 1.83 0 3.31-1.32 3.31-2.94 0-1.63-1.48-2.94-3.3-2.94zM34.43 9.11c0-2.25-1.01-4.42-2.8-6.01S27.4.6 24.85.6c-2.54 0-4.97.9-6.77 2.5s-2.8 3.75-2.8 6.01v12.44s19.14-1.9 19.14-12.44zM0 25.63c0 1.57.7 3.07 1.96 4.18s2.94 1.74 4.7 1.74c1.77 0 3.46-.63 4.7-1.74s1.96-2.61 1.96-4.18v-8.65S0 18.3 0 25.63zm6.66 1.55c-.34 0-.68-.1-.97-.26s-.5-.42-.64-.7c-.13-.28-.17-.6-.1-.9s.23-.57.48-.79a1.94 1.94 0 0 1 1.9-.34c.32.12.59.32.78.58s.3.55.3.86c0 .2-.05.4-.13.6s-.22.35-.38.5c-.17.14-.36.26-.57.33s-.44.12-.67.12zM18.84 24.4v3.25h-.67V24.4h.67zm1.3 1.4v.51h-1.48v-.52h1.48zm.15-1.4v.53h-1.63v-.53h1.63zm3.06 1.55v.16c0 .24-.03.47-.1.66s-.16.37-.28.5c-.13.14-.27.25-.44.32-.17.07-.36.1-.56.1-.2 0-.4-.03-.56-.1a1.26 1.26 0 0 1-.44-.32c-.12-.13-.22-.3-.29-.5-.06-.2-.1-.42-.1-.66v-.16c0-.25.04-.47.1-.66.07-.2.16-.37.29-.5.12-.14.27-.25.43-.32.17-.07.36-.11.56-.11.2 0 .4.04.56.1.17.08.32.19.44.33.12.13.22.3.29.5.07.2.1.41.1.66zm-.68.16v-.16c0-.17-.01-.33-.04-.46s-.08-.24-.14-.33a.6.6 0 0 0-.52-.27.64.64 0 0 0-.3.07.61.61 0 0 0-.23.2c-.05.1-.1.2-.13.33s-.05.29-.05.46v.16a2 2 0 0 0 .05.45c.03.13.08.24.14.33.06.1.13.16.22.2s.19.08.3.08c.11 0 .21-.03.3-.07s.16-.12.22-.2c.06-.1.1-.2.14-.34a2 2 0 0 0 .05-.45zm2.85.7c0-.07 0-.12-.02-.16a.3.3 0 0 0-.1-.13c-.04-.04-.1-.08-.19-.12l-.32-.12c-.15-.05-.3-.1-.42-.16a1.69 1.69 0 0 1-.35-.21.94.94 0 0 1-.24-.28.76.76 0 0 1-.08-.37c0-.13.03-.26.08-.37.06-.1.15-.2.25-.28.11-.08.24-.14.38-.19a1.72 1.72 0 0 1 1.11.07 1 1 0 0 1 .42.35c.1.15.15.32.15.52h-.67a.5.5 0 0 0-.06-.25.4.4 0 0 0-.17-.17.63.63 0 0 0-.3-.07.69.69 0 0 0-.3.06.39.39 0 0 0-.17.14.34.34 0 0 0-.05.2c0 .05 0 .1.04.14.02.05.06.09.12.13l.2.1c.08.04.18.08.28.1.18.06.33.12.47.19.13.07.25.14.34.22a.81.81 0 0 1 .27.65c0 .14-.03.27-.08.38s-.14.2-.24.28-.23.14-.37.18a1.81 1.81 0 0 1-1.39-.2c-.13-.09-.23-.2-.3-.33s-.12-.3-.12-.47h.67c0 .1.02.18.05.25s.08.13.13.17c.06.05.13.08.2.1l.27.03c.12 0 .21-.02.29-.05a.35.35 0 0 0 .22-.34zm2.58-2.4v3.24h-.66V24.4h.66zm1 0v.52h-2.65v-.53h2.65zm2.57 2.72v.52h-1.73v-.52h1.73zm-1.52-2.73v3.25h-.67V24.4h.67zm1.29 1.33v.5h-1.5v-.5h1.5zm.22-1.33v.53h-1.72v-.53h1.72zm.4 0h1.2c.26 0 .47.04.65.11.18.08.32.19.41.33s.15.33.15.54c0 .18-.03.33-.09.45a.84.84 0 0 1-.25.31c-.1.08-.23.15-.37.2l-.21.11h-1.06v-.52h.78c.12 0 .22-.02.3-.06s.13-.1.17-.18a.54.54 0 0 0 .06-.26c0-.1-.02-.2-.06-.27s-.1-.13-.18-.17a.65.65 0 0 0-.3-.06h-.53v2.72h-.67V24.4zm1.81 3.25-.74-1.45h.71l.75 1.42v.03h-.72zm3.52-1.16h-.83v-.52h.83a.7.7 0 0 0 .31-.06c.08-.04.14-.1.18-.18s.05-.16.05-.26-.01-.18-.05-.27-.1-.15-.18-.2-.18-.07-.31-.07h-.6v2.72h-.67V24.4h1.27c.25 0 .47.05.65.14a.99.99 0 0 1 .57.93c0 .2-.05.39-.15.54s-.23.28-.42.36c-.18.08-.4.12-.65.12zm3.86.64v.52h-1.73v-.52h1.73zm-1.51-2.73v3.25h-.67V24.4h.67zm1.28 1.33v.5h-1.5v-.5h1.5zm.23-1.33v.53h-1.73v-.53h1.73zm1.89 0v3.25h-.67V24.4h.67zm1 0v.53h-2.65v-.53h2.65zm2.56 2.73v.52h-1.73v-.52h1.73zM45.2 24.4v3.25h-.67V24.4h.67zm1.29 1.33v.5h-1.5v-.5h1.5zm.22-1.33v.53h-1.73v-.53h1.73zm.4 0h1.2c.25 0 .47.04.65.11.17.08.31.19.41.33s.14.33.14.54c0 .18-.02.33-.08.45a.84.84 0 0 1-.25.31c-.1.08-.23.15-.37.2l-.22.11h-1.05v-.52h.78c.12 0 .21-.02.29-.06s.14-.1.17-.18a.54.54 0 0 0 .06-.26c0-.1-.01-.2-.05-.27s-.1-.13-.18-.17a.65.65 0 0 0-.3-.06h-.54v2.72h-.67V24.4zm1.8 3.25-.73-1.45h.7l.76 1.42v.03h-.72zm2.81-.85c0-.06 0-.1-.02-.15a.3.3 0 0 0-.1-.13c-.04-.04-.1-.08-.2-.12l-.32-.12-.42-.16a1.69 1.69 0 0 1-.34-.21.94.94 0 0 1-.24-.28.76.76 0 0 1-.09-.37c0-.13.03-.26.1-.37.05-.1.14-.2.24-.28.11-.08.24-.14.38-.19a1.72 1.72 0 0 1 1.11.07 1 1 0 0 1 .42.35c.1.15.15.32.15.52h-.67a.5.5 0 0 0-.06-.25.4.4 0 0 0-.18-.17.63.63 0 0 0-.3-.07.69.69 0 0 0-.29.06.39.39 0 0 0-.17.14.34.34 0 0 0-.06.2c0 .05.02.1.04.14.03.05.07.09.13.13l.2.1c.08.04.17.08.28.1.18.06.33.12.47.19.13.07.25.14.34.22a.81.81 0 0 1 .27.65c0 .14-.03.27-.08.38s-.14.2-.24.28-.23.14-.38.18a1.81 1.81 0 0 1-1.38-.2c-.13-.09-.23-.2-.3-.33s-.12-.3-.12-.47h.67c0 .1.02.18.05.25s.08.13.13.17c.06.05.13.08.2.1l.27.03c.12 0 .21-.02.29-.05a.35.35 0 0 0 .22-.34z"/></symbol>
<symbol id="icon-client-5" viewBox="0 0 64 32"><path d="M16.16 27.06c.14.17.22.38.22.6 0 .13-.02.27-.08.4s-.15.24-.27.34c-.28.2-.64.3-1 .27h-1.75v-3.74H15c.34-.02.68.07.95.25.11.08.2.2.26.31s.08.26.07.39c.01.2-.06.4-.2.57a.94.94 0 0 1-.52.3c.24.03.44.15.6.31zm-2.06-.56h.73c.17 0 .34-.03.47-.13.06-.04.1-.1.13-.16s.03-.13.03-.2 0-.14-.04-.2-.06-.12-.12-.17a.76.76 0 0 0-.48-.12h-.72v.98zm1.27 1.43c.06-.05.1-.1.14-.17s.04-.14.03-.2c0-.08 0-.15-.04-.22s-.07-.12-.13-.17a.8.8 0 0 0-.5-.14h-.77v1.03h.78c.17.01.35-.03.49-.13zM19.66 28.67l-.95-1.46h-.36v1.46h-.82v-3.74h1.55c.4-.02.79.1 1.09.32.21.2.35.47.37.75s-.07.57-.26.8c-.19.2-.45.33-.74.38l1.02 1.5h-.9zm-1.3-1.97h.66c.47 0 .7-.19.7-.57 0-.07 0-.15-.03-.22s-.08-.14-.14-.2a.78.78 0 0 0-.53-.15h-.68l.01 1.14zM24.16 27.92h-1.64l-.29.75h-.86l1.5-3.7h.93l1.5 3.7h-.86l-.28-.75zm-.22-.57-.6-1.58-.6 1.58h1.2zM29.78 28.67h-.82l-1.82-2.54v2.54h-.82v-3.74h.82l1.82 2.56v-2.56h.82v3.74zM34.44 27.77a1.7 1.7 0 0 1-.74.66 2.6 2.6 0 0 1-1.15.24H31.1v-3.74h1.45c.4 0 .8.07 1.15.23.3.15.57.37.73.65a2.02 2.02 0 0 1 0 1.97zm-.94-.09c.23-.24.36-.56.36-.89s-.13-.64-.36-.89a1.5 1.5 0 0 0-1.02-.32h-.57V28h.57c.37.02.74-.09 1.02-.31zM24.67 4.14s10.53 3.64 10.3 8.9v8.91s-10.52-3.64-10.3-8.9V4.13zM44.35 19.87a15.27 15.27 0 0 1 6.7-2.26v-2.79a13.53 13.53 0 0 0-6.7 5.05z"/><path d="M43.16 20.7c1.63-3 4.45-5.3 7.88-6.46V6.2s-15 5.19-14.68 12.69v12.68s.67-.23 1.72-.67c0-.4 0-.81.05-1.22.31-3.48 2.12-6.71 5.03-8.97z"/><path d="M41.73 25.42c.08-.88.26-1.75.53-2.6a11.73 11.73 0 0 0-3.18 7.66c.86-.37 1.85-.84 2.89-1.39-.27-1.2-.35-2.44-.24-3.67zM42.33 25.46a11.5 11.5 0 0 0 .18 3.33c4.1-2.24 8.7-5.71 8.53-9.9v-.37a14 14 0 0 0-7.8 3.34c-.5 1.15-.8 2.37-.91 3.6z"/></symbol>
<symbol id="icon-client-6" viewBox="0 0 64 32"><path d="M32.26 16.6c-.27-.36-.4-.78-.37-1.2v-1.74c0-.54.12-.94.36-1.22s.66-.41 1.25-.41c.56 0 .95.12 1.18.35.26.3.38.67.35 1.04v.41h-1v-.41c.01-.14 0-.27-.02-.4a.39.39 0 0 0-.14-.25.57.57 0 0 0-.36-.1.6.6 0 0 0-.38.1.46.46 0 0 0-.16.27c-.03.14-.04.29-.04.43v2.11c-.02.2.03.41.13.6.04.06.11.11.2.14s.16.04.25.03c.13.01.25-.02.35-.1a.42.42 0 0 0 .15-.25l.03-.42v-.43h1v.4c.02.38-.1.76-.35 1.08-.23.26-.62.4-1.19.4s-1-.15-1.24-.43zM36.38 16.62c-.25-.27-.37-.67-.37-1.19V13.6c0-.52.12-.9.37-1.17s.67-.4 1.26-.4c.58 0 1 .13 1.25.4.25.26.37.65.37 1.17v1.83c0 .52-.12.91-.38 1.19s-.67.4-1.24.4c-.58 0-1-.13-1.26-.4zm1.72-.44c.09-.17.13-.36.12-.54v-2.25a1 1 0 0 0-.12-.53c-.05-.06-.12-.11-.2-.14s-.17-.04-.26-.03c-.1-.01-.18 0-.27.03s-.15.08-.2.14a.98.98 0 0 0-.12.53v2.26a1 1 0 0 0 .12.54c.06.06.13.1.21.13s.17.05.26.05a.69.69 0 0 0 .46-.18v-.01zM40.45 12.08h1.07l.8 3.38.82-3.38h1.04l.1 4.88h-.76l-.08-3.39-.8 3.39h-.6l-.83-3.4-.08 3.4h-.77l.1-4.88zM45.48 12.08h1.66c.96 0 1.44.46 1.44 1.39 0 .88-.5 1.32-1.51 1.32h-.57v2.17h-1.03l.01-4.88zm1.42 2.09c.1 0 .2 0 .3-.03s.2-.07.27-.13a.8.8 0 0 0 .14-.55c0-.15 0-.3-.04-.44-.02-.05-.04-.1-.08-.14s-.08-.07-.13-.1c-.14-.05-.3-.08-.46-.07h-.4v1.45h.4zM50.06 12.08h1.1l1.13 4.88h-.96l-.22-1.13h-.98l-.23 1.13h-.97l1.13-4.88zm.94 3.19-.38-2.05-.39 2.05H51zM53.2 12.08h.72l1.38 2.78v-2.78h.85v4.88h-.69l-1.38-2.9v2.9h-.88v-4.88zM58.14 15.1 57 12.09h.96l.7 1.93.65-1.93h.94l-1.13 3v1.87h-.98V15.1zM33.84 19.09v.26H33v1.98h-.35v-1.99h-.84v-.25h2.03zM36.46 21.33h-.27c-.02 0-.05 0-.07-.02a.12.12 0 0 1-.05-.05l-.24-.54h-1.16l-.24.54-.04.06a.12.12 0 0 1-.08.02h-.27l1.03-2.24h.36l1.03 2.23zm-1.7-.83h.97l-.4-.91a1.61 1.61 0 0 1-.08-.21l-.04.12-.04.09-.4.9zM38.23 21.1h.2a1.12 1.12 0 0 0 .3-.06l.14-.06v-.5h-.44l-.02-.02-.02-.01v-.2h.8v.86a1.53 1.53 0 0 1-.7.23l-.3.01c-.17 0-.35-.03-.51-.08-.16-.05-.3-.13-.41-.24-.12-.1-.2-.22-.27-.35a1.1 1.1 0 0 1-.1-.46c0-.16.04-.32.1-.47.06-.13.15-.25.27-.36.11-.1.25-.18.4-.23a1.73 1.73 0 0 1 .84-.06 1.44 1.44 0 0 1 .45.14l.18.12-.1.14-.03.03-.05.01c-.02 0-.05 0-.06-.02a1.27 1.27 0 0 1-.1-.05 1.31 1.31 0 0 0-.98-.07.78.78 0 0 0-.5.45c-.1.25-.1.51 0 .75.04.1.11.2.2.29a.87.87 0 0 0 .7.22zM41.5 21.07h1.12v.26h-1.46v-2.24h.35v1.98zM43.79 21.33h-.35v-2.24h.35v2.24zM45.1 19.1l.04.04 1.5 1.69v-1.75h.3v2.25h-.17c-.02 0-.05 0-.07-.02a.2.2 0 0 1-.06-.04l-1.5-1.68V21.33h-.29v-2.24h.18l.06.01zM49.53 19.09v.25H48.3v.73h1v.24h-1v.76h1.24v.25h-1.6v-2.23h1.6zM12.78 5.28 28.35 9.1v13.37l-15.57-3.81V5.28zm-1-1.14V19.3l17.57 4.3V8.46L11.78 4.14z"/><path d="M21.2 30.66 3.62 26.35V11.18l17.57 4.3v15.18z"/><path d="m12.07 5.1 15.37 3.78-6.54 5.64-15.37-3.77 6.54-5.64zm-.3-.96-8.15 7.04 17.57 4.3 8.16-7.03-17.57-4.31zM22.18 29.8l7.17-6.18-7.17-1.76v7.95z"/></symbol>
<symbol id="icon-envelope" viewBox="0 0 43 32"><path d="M38.67 0H4a4 4 0 0 0-4 4v24a4 4 0 0 0 4 4h34.67a4 4 0 0 0 4-4V4a4 4 0 0 0-4-4zm0 2.67c.18 0 .35.03.5.1L21.34 18.24 3.5 2.77c.16-.07.33-.1.51-.1h34.67zm0 26.66H4c-.74 0-1.33-.6-1.33-1.33V5.59L20.46 21a1.33 1.33 0 0 0 1.75 0L40 5.59V28c0 .74-.6 1.33-1.34 1.33z"/></symbol>
<symbol id="icon-facebook" viewBox="0 0 32 32"><path d="M21.33 5.31h2.92V.23C23.75.15 22.01 0 19.99 0c-4.2 0-7.1 2.65-7.1 7.52V12H8.26v5.69h4.65V32h5.7V17.69h4.46l.7-5.69H18.6V8.08c0-1.64.45-2.77 2.74-2.77z"/></symbol>
<symbol id="icon-instagram" viewBox="0 0 32 32"><path d="M31.97 9.4a11.7 11.7 0 0 0-.74-3.87 7.8 7.8 0 0 0-1.86-2.84A7.87 7.87 0 0 0 26.54.84C25.52.45 24.36.17 22.66.1 20.95.02 20.4 0 16.06 0s-4.89.02-6.6.1C7.76.16 6.6.43 5.58.83a7.8 7.8 0 0 0-2.84 1.85A7.87 7.87 0 0 0 .9 5.52C.5 6.54.23 7.7.16 9.4c-.08 1.71-.1 2.26-.1 6.6s.02 4.9.09 6.6c.08 1.7.35 2.87.74 3.88a7.9 7.9 0 0 0 1.85 2.84c.8.81 1.77 1.44 2.84 1.84 1.02.4 2.18.67 3.88.75 1.7.07 2.25.09 6.6.09s4.88-.02 6.59-.1a11.7 11.7 0 0 0 3.88-.74 8.18 8.18 0 0 0 4.68-4.68c.4-1.02.67-2.18.75-3.88.07-1.7.09-2.25.09-6.6s0-4.89-.08-6.6zm-2.88 13.07a8.76 8.76 0 0 1-.55 2.97 5.31 5.31 0 0 1-3.04 3.04c-.56.22-1.41.48-2.97.55-1.69.07-2.2.1-6.46.1s-4.79-.02-6.47-.1a8.76 8.76 0 0 1-2.97-.55 4.93 4.93 0 0 1-1.84-1.2 4.97 4.97 0 0 1-1.19-1.83 8.81 8.81 0 0 1-.55-2.97c-.07-1.69-.1-2.2-.1-6.47s.03-4.78.1-6.46c.07-1.56.33-2.4.55-2.97.26-.7.66-1.32 1.2-1.84a4.97 4.97 0 0 1 1.84-1.19A8.81 8.81 0 0 1 9.6 3c1.69-.07 2.2-.1 6.46-.1 4.28 0 4.78.03 6.47.1 1.56.07 2.4.33 2.96.55.7.26 1.33.66 1.84 1.2.53.51.94 1.14 1.2 1.83.22.57.48 1.42.55 2.97.07 1.69.1 2.2.1 6.46s-.03 4.77-.1 6.46z"/><path d="M16.06 7.78a8.22 8.22 0 1 0 0 16.45 8.22 8.22 0 0 0 0-16.45zm0 13.55a5.33 5.33 0 1 1 0-10.66 5.33 5.33 0 0 1 0 10.67zM26.52 7.46a1.92 1.92 0 1 1-3.83 0 1.92 1.92 0 0 1 3.83 0z"/></symbol>
<symbol id="icon-linkedin" viewBox="0 0 32 32"><path d="M32 32V20.26c0-5.74-1.24-10.16-7.95-10.16-3.23 0-5.39 1.77-6.27 3.45h-.1v-2.92h-6.36V32h6.63V21.42c0-2.79.52-5.48 3.97-5.48 3.4 0 3.45 3.18 3.45 5.66V32H32zM.53 10.64h6.63V32H.53V10.64zM3.84 0C1.72 0 0 1.72 0 3.84s1.72 3.88 3.84 3.88A3.88 3.88 0 0 0 7.7 3.84 3.85 3.85 0 0 0 3.84 0z"/></symbol>
<symbol id="icon-twitter" viewBox="0 0 32 32"><path d="M32 6.08c-1.19.52-2.46.87-3.78 1.03a6.52 6.52 0 0 0 2.89-3.62 13.11 13.11 0 0 1-4.16 1.59 6.57 6.57 0 0 0-11.2 5.98A18.57 18.57 0 0 1 2.23 4.2a6.57 6.57 0 0 0 2.02 8.77 6.48 6.48 0 0 1-2.97-.81v.07a6.59 6.59 0 0 0 5.26 6.44 6.55 6.55 0 0 1-2.97.1 6.62 6.62 0 0 0 6.13 4.58 13.18 13.18 0 0 1-9.7 2.7A18.47 18.47 0 0 0 10.06 29c12.08 0 18.68-10 18.68-18.67 0-.29-.01-.57-.03-.85 1.3-.92 2.4-2.07 3.29-3.4z"/></symbol>
<symbol id="icon-x" viewBox="0 0 32 32"><path d="m26.667 7.303-1.97-1.97-7.808 7.808-7.808-7.808-1.97 1.97 7.808 7.808-7.808 7.808 1.97 1.97 7.808-7.808 7.808 7.808 1.97-1.97-7.808-7.808 7.808-7.808z"/></symbol>
<symbol id="icon-check" viewBox="0 0 42 32"><path stroke-linejoin="miter" stroke-linecap="butt" stroke-miterlimit="4" stroke-width="0.64" d="M6.263 15.205l-0.22-0.21-3.307 3.132 11.651 11.114 24.477-23.351-3.285-3.134-21.192 20.197-8.124-7.75z"></path>
</symbol>
<symbol id="icon-subscribe" viewBox="0 0 142 32"><path d="M7.517 18.15c0-0.472-0.167-0.833-0.5-1.083-0.333-0.256-0.933-0.522-1.8-0.8-0.867-0.283-1.553-0.561-2.058-0.833-1.378-0.745-2.067-1.747-2.067-3.008 0-0.655 0.183-1.239 0.55-1.75 0.372-0.517 0.903-0.919 1.592-1.208 0.694-0.289 1.472-0.433 2.333-0.433 0.867 0 1.639 0.158 2.317 0.475 0.678 0.311 1.203 0.753 1.575 1.325 0.378 0.572 0.567 1.222 0.567 1.95h-2.5c0-0.556-0.175-0.986-0.525-1.292-0.35-0.311-0.842-0.467-1.475-0.467-0.611 0-1.086 0.131-1.425 0.392-0.339 0.256-0.508 0.594-0.508 1.017 0 0.394 0.197 0.725 0.592 0.992 0.4 0.267 0.986 0.517 1.758 0.75 1.422 0.428 2.458 0.958 3.108 1.592s0.975 1.422 0.975 2.367c0 1.050-0.397 1.875-1.192 2.475-0.794 0.594-1.864 0.892-3.208 0.892-0.933 0-1.783-0.169-2.55-0.508-0.767-0.344-1.353-0.814-1.758-1.408-0.4-0.594-0.6-1.283-0.6-2.067h2.508c0 1.339 0.8 2.008 2.4 2.008 0.594 0 1.058-0.119 1.392-0.358 0.333-0.244 0.5-0.583 0.5-1.017zM17.991 20.417c-0.594 0.722-1.417 1.083-2.467 1.083-0.967 0-1.706-0.278-2.217-0.833-0.505-0.556-0.764-1.369-0.775-2.442v-5.908h2.408v5.825c0 0.939 0.428 1.408 1.283 1.408 0.817 0 1.378-0.283 1.683-0.85v-6.383h2.417v9.017h-2.267l-0.067-0.917zM28.048 18.842c0-0.294-0.147-0.525-0.442-0.692-0.289-0.172-0.756-0.325-1.4-0.458-2.145-0.45-3.217-1.361-3.217-2.733 0-0.8 0.331-1.467 0.992-2 0.667-0.539 1.536-0.808 2.608-0.808 1.144 0 2.058 0.269 2.742 0.808 0.689 0.539 1.033 1.239 1.033 2.1h-2.408c0-0.344-0.111-0.628-0.333-0.85-0.222-0.228-0.57-0.342-1.042-0.342-0.406 0-0.719 0.092-0.942 0.275s-0.333 0.417-0.333 0.7c0 0.267 0.125 0.483 0.375 0.65 0.255 0.161 0.683 0.303 1.283 0.425 0.6 0.117 1.105 0.25 1.517 0.4 1.272 0.467 1.908 1.275 1.908 2.425 0 0.822-0.353 1.489-1.058 2-0.706 0.506-1.617 0.758-2.733 0.758-0.756 0-1.428-0.133-2.017-0.4-0.583-0.272-1.042-0.642-1.375-1.108-0.333-0.472-0.5-0.981-0.5-1.525h2.283c0.022 0.428 0.181 0.756 0.475 0.983s0.689 0.342 1.183 0.342c0.461 0 0.808-0.086 1.042-0.258 0.239-0.178 0.358-0.408 0.358-0.692zM36.722 19.558c0.444 0 0.806-0.122 1.083-0.367s0.422-0.57 0.433-0.975h2.258c-0.006 0.611-0.172 1.172-0.5 1.683-0.328 0.506-0.778 0.9-1.35 1.183-0.567 0.278-1.194 0.417-1.883 0.417-1.289 0-2.306-0.408-3.050-1.225-0.744-0.822-1.117-1.956-1.117-3.4v-0.158c0-1.389 0.37-2.497 1.108-3.325s1.753-1.242 3.042-1.242c1.128 0 2.031 0.322 2.708 0.967 0.683 0.639 1.031 1.492 1.042 2.558h-2.258c-0.011-0.467-0.156-0.844-0.433-1.133-0.278-0.294-0.644-0.442-1.1-0.442-0.561 0-0.986 0.206-1.275 0.617-0.283 0.406-0.425 1.067-0.425 1.983v0.25c0 0.928 0.142 1.594 0.425 2s0.714 0.608 1.292 0.608zM47.963 14.575c-0.328-0.044-0.617-0.067-0.867-0.067-0.911 0-1.508 0.308-1.792 0.925v5.9h-2.408v-9.017h2.275l0.067 1.075c0.483-0.828 1.153-1.242 2.008-1.242 0.267 0 0.517 0.036 0.75 0.108l-0.033 2.317zM52.754 21.333h-2.408v-9.017h2.408v9.017zM52.045 8.658h2.625l-2.308 2.583h-1.958l1.642-2.583zM63.986 16.908c0 1.444-0.308 2.572-0.925 3.383-0.617 0.806-1.478 1.208-2.583 1.208-0.978 0-1.758-0.375-2.342-1.125l-0.108 0.958h-2.167v-12.8h2.408v4.592c0.556-0.65 1.286-0.975 2.192-0.975 1.1 0 1.961 0.406 2.583 1.217 0.628 0.806 0.942 1.942 0.942 3.408v0.133zM61.578 16.733c0-0.911-0.145-1.575-0.433-1.992-0.289-0.422-0.719-0.633-1.292-0.633-0.767 0-1.294 0.314-1.583 0.942v3.558c0.294 0.633 0.828 0.95 1.6 0.95 0.778 0 1.289-0.383 1.533-1.15 0.117-0.367 0.175-0.925 0.175-1.675zM71.727 21.333c-0.111-0.217-0.192-0.486-0.242-0.808-0.583 0.65-1.342 0.975-2.275 0.975-0.883 0-1.617-0.255-2.2-0.767-0.578-0.511-0.867-1.156-0.867-1.933 0-0.956 0.353-1.689 1.058-2.2 0.711-0.511 1.736-0.77 3.075-0.775h1.108v-0.517c0-0.417-0.108-0.75-0.325-1-0.211-0.25-0.547-0.375-1.008-0.375-0.406 0-0.725 0.097-0.958 0.292-0.228 0.194-0.342 0.461-0.342 0.8h-2.408c0-0.522 0.161-1.006 0.483-1.45s0.778-0.792 1.367-1.042c0.589-0.256 1.25-0.383 1.983-0.383 1.111 0 1.992 0.281 2.642 0.842 0.656 0.556 0.983 1.339 0.983 2.35v3.908c0.006 0.856 0.125 1.503 0.358 1.942v0.142h-2.433zM69.735 19.658c0.356 0 0.683-0.078 0.983-0.233 0.3-0.161 0.522-0.375 0.667-0.642v-1.55h-0.9c-1.206 0-1.847 0.417-1.925 1.25l-0.008 0.142c0 0.3 0.106 0.547 0.317 0.742s0.5 0.292 0.867 0.292zM81.559 18.842c0-0.294-0.147-0.525-0.442-0.692-0.289-0.172-0.756-0.325-1.4-0.458-2.144-0.45-3.217-1.361-3.217-2.733 0-0.8 0.331-1.467 0.992-2 0.667-0.539 1.536-0.808 2.608-0.808 1.144 0 2.058 0.269 2.742 0.808 0.689 0.539 1.033 1.239 1.033 2.1h-2.408c0-0.344-0.111-0.628-0.333-0.85-0.222-0.228-0.569-0.342-1.042-0.342-0.406 0-0.719 0.092-0.942 0.275s-0.333 0.417-0.333 0.7c0 0.267 0.125 0.483 0.375 0.65 0.256 0.161 0.683 0.303 1.283 0.425 0.6 0.117 1.106 0.25 1.517 0.4 1.272 0.467 1.908 1.275 1.908 2.425 0 0.822-0.353 1.489-1.058 2-0.706 0.506-1.617 0.758-2.733 0.758-0.756 0-1.428-0.133-2.017-0.4-0.583-0.272-1.042-0.642-1.375-1.108-0.333-0.472-0.5-0.981-0.5-1.525h2.283c0.022 0.428 0.18 0.756 0.475 0.983s0.689 0.342 1.183 0.342c0.461 0 0.808-0.086 1.042-0.258 0.239-0.178 0.358-0.408 0.358-0.692zM90.633 21.5c-1.322 0-2.4-0.406-3.233-1.217-0.828-0.811-1.242-1.892-1.242-3.242v-0.233c0-0.905 0.175-1.714 0.525-2.425 0.35-0.717 0.844-1.267 1.483-1.65 0.644-0.389 1.378-0.583 2.2-0.583 1.233 0 2.203 0.389 2.908 1.167 0.711 0.778 1.067 1.881 1.067 3.308v0.983h-5.742c0.078 0.589 0.311 1.061 0.7 1.417 0.394 0.356 0.892 0.533 1.492 0.533 0.928 0 1.653-0.336 2.175-1.008l1.183 1.325c-0.361 0.511-0.85 0.911-1.467 1.2-0.617 0.283-1.3 0.425-2.050 0.425zM90.358 14.1c-0.478 0-0.867 0.161-1.167 0.483-0.294 0.322-0.483 0.783-0.567 1.383h3.35v-0.192c-0.011-0.533-0.156-0.945-0.433-1.233-0.278-0.294-0.672-0.442-1.183-0.442zM141.867 3.2l-25.6 14.4 8.181 3.030 12.619-11.83-9.598 12.949 0.007 0.003-0.010-0.003v7.051l4.588-5.353 5.812 2.153 4-22.4z"></path>
</symbol>
<symbol id="icon-e-mail" viewBox="0 0 32 32"><path d="M26.667 5.333h-21.333c-1.467 0-2.653 1.2-2.653 2.667l-0.013 16c0 1.467 1.2 2.667 2.667 2.667h21.333c1.467 0 2.667-1.2 2.667-2.667v-16c0-1.467-1.2-2.667-2.667-2.667zM26.133 11l-9.427 5.893c-0.427 0.267-0.987 0.267-1.413 0l-9.427-5.893c-0.333-0.213-0.533-0.573-0.533-0.96 0-0.893 0.973-1.427 1.733-0.96l8.933 5.587 8.933-5.587c0.76-0.467 1.733 0.067 1.733 0.96 0 0.387-0.2 0.747-0.533 0.96z"></path>
</symbol>
<symbol id="icon-phone" viewBox="0 0 32 32"><path d="M24.882 19.773l-3.268-0.373c-0.785-0.090-1.557 0.18-2.11 0.733l-2.367 2.367c-3.641-1.853-6.626-4.825-8.478-8.478l2.38-2.38c0.553-0.553 0.823-1.325 0.733-2.11l-0.373-3.242c-0.154-1.299-1.248-2.277-2.56-2.277h-2.226c-1.454 0-2.663 1.209-2.573 2.663 0.682 10.987 9.469 19.761 20.443 20.443 1.454 0.090 2.663-1.119 2.663-2.573v-2.226c0.013-1.3-0.965-2.393-2.264-2.547z"></path>
</symbol>
<symbol id="icon-name" viewBox="0 0 32 32"><path d="M16 16c2.947 0 5.333-2.387 5.333-5.333s-2.387-5.333-5.333-5.333-5.333 2.387-5.333 5.333 2.387 5.333 5.333 5.333zM16 18.667c-3.56 0-10.667 1.787-10.667 5.333v1.333c0 0.733 0.6 1.333 1.333 1.333h18.667c0.733 0 1.333-0.6 1.333-1.333v-1.333c0-3.547-7.107-5.333-10.667-5.333z"></path>
</symbol>
</defs>
</svg>